<?xml version="1.0" standalone="no"?><!DOCTYPE svg PUBLIC "-//W3C//DTD SVG 1.1//EN" "http://www.w3.org/Graphics/SVG/1.1/DTD/svg11.dtd"><svg t="1701263035106" class="icon" viewBox="0 0 1024 1024" version="1.1" xmlns="http://www.w3.org/2000/svg" p-id="6967" xmlns:xlink="http://www.w3.org/1999/xlink" width="200" height="200"><path d="M896 469.333333h-42.666667V213.333333a42.666667 42.666667 0 0 0-42.666666-42.666666h-128V128a42.666667 42.666667 0 0 0-42.666667-42.666667H384a42.666667 42.666667 0 0 0-42.666667 42.666667v42.666667H213.333333a42.666667 42.666667 0 0 0-42.666666 42.666666v597.333334a42.666667 42.666667 0 0 0 42.666666 42.666666h256v42.666667a42.666667 42.666667 0 0 0 42.666667 42.666667h384a42.666667 42.666667 0 0 0 42.666667-42.666667v-384a42.666667 42.666667 0 0 0-42.666667-42.666667zM426.666667 170.666667h170.666666v85.333333h-170.666666V170.666667z m42.666666 341.333333v256H256V256h85.333333v42.666667a42.666667 42.666667 0 0 0 42.666667 42.666666h256a42.666667 42.666667 0 0 0 42.666667-42.666666V256h85.333333v213.333333h-256a42.666667 42.666667 0 0 0-42.666667 42.666667z m384 341.333333h-298.666666v-298.666666h298.666666v298.666666z" fill="#FFFFFF" p-id="6968"></path></svg>