<?xml version="1.0" encoding="UTF-8" standalone="no"?>
<svg
   t="1703951766996"
   class="icon"
   viewBox="0 0 1024 1024"
   version="1.1"
   p-id="7341"
   width="200"
   height="200"
   id="svg8"
   sodipodi:docname="view.svg"
   inkscape:version="1.2.1 (9c6d41e410, 2022-07-14)"
   xmlns:inkscape="http://www.inkscape.org/namespaces/inkscape"
   xmlns:sodipodi="http://sodipodi.sourceforge.net/DTD/sodipodi-0.dtd"
   xmlns="http://www.w3.org/2000/svg"
   xmlns:svg="http://www.w3.org/2000/svg">
  <defs
     id="defs12" />
  <sodipodi:namedview
     id="namedview10"
     pagecolor="#ffffff"
     bordercolor="#000000"
     borderopacity="0.25"
     inkscape:showpageshadow="2"
     inkscape:pageopacity="0.0"
     inkscape:pagecheckerboard="0"
     inkscape:deskcolor="#d1d1d1"
     showgrid="false"
     inkscape:zoom="5.135"
     inkscape:cx="100"
     inkscape:cy="99.902629"
     inkscape:window-width="3840"
     inkscape:window-height="2036"
     inkscape:window-x="-12"
     inkscape:window-y="-12"
     inkscape:window-maximized="1"
     inkscape:current-layer="svg8" />
  <path
     d="M 517.98247,980.12853 H 180.98598 c -66.8445,0 -121.161248,-54.73047 -121.161248,-122.08413 V 178.91762 c 0,-67.35365 54.316748,-122.084125 121.161248,-122.084125 h 673.99298 c 66.8445,0 121.16125,54.730475 121.16125,122.084125 v 339.56339 c 0,22.45122 -17.98627,40.57449 -40.26777,40.57449 -22.2815,0 -40.26777,-18.12327 -40.26777,-40.57449 V 178.91762 c 0,-22.54138 -18.25473,-40.93515 -40.62571,-40.93515 H 180.98598 c -22.37099,0 -40.62571,18.39377 -40.62571,40.93515 V 858.0444 c 0,22.54139 18.25472,40.93515 40.62571,40.93515 h 336.99649 c 22.2815,0 40.26777,18.12328 40.26777,40.57449 0,22.45122 -17.98627,40.57449 -40.26777,40.57449 z"
     fill="#e58585"
     p-id="7342"
     id="path2"
     style="fill:#000000;stroke-width:0.9984;stroke-dasharray:none" />
  <path
     d="m 517.98247,779.96105 c -69.35005,0 -134.49435,-27.22999 -183.53155,-76.55053 -48.94771,-49.41071 -75.97186,-115.05122 -75.97186,-184.92951 0,-69.87828 27.02415,-135.51879 75.97186,-184.9295 48.94771,-49.41071 114.1815,-76.55054 183.53155,-76.55054 69.35005,0 134.49435,27.22999 183.53155,76.55054 48.94771,49.41071 75.97185,115.05122 75.97185,184.9295 0,69.87829 -27.02414,135.5188 -75.97185,184.92951 -49.0372,49.32054 -114.1815,76.55053 -183.53155,76.55053 z m 0,-441.8111 c -98.70078,0 -178.96787,80.87848 -178.96787,180.33106 0,99.45258 80.26709,180.33107 178.96787,180.33107 98.70078,0 178.96786,-80.87849 178.96786,-180.33107 0,-99.45258 -80.26708,-180.33106 -178.96786,-180.33106 z"
     fill="#e58585"
     p-id="7343"
     id="path4"
     style="fill:#000000;stroke-width:0.9984;stroke-dasharray:none" />
  <path
     d="m 935.42502,979.6777 c -10.29066,0 -20.58131,-3.96728 -28.45589,-11.90185 L 644.33378,703.14002 c -15.74917,-15.86913 -15.74917,-41.56631 0,-57.34528 15.74917,-15.86913 41.2521,-15.86913 56.91178,0 l 262.63535,264.63584 c 15.74917,15.86913 15.74917,41.56631 0,57.34527 -7.87459,7.93457 -18.16524,11.90185 -28.45589,11.90185 z"
     fill="#e58585"
     p-id="7344"
     id="path6"
     style="fill:#000000;stroke-width:0.9984;stroke-dasharray:none" />
</svg>
