<svg xmlns="http://www.w3.org/2000/svg" viewBox="0 0 1024 1024"><path fill="currentColor" d="M409.6 645.12c26.624 30.72 40.96 69.632 40.96 112.64 0 96.256-77.824 174.08-174.08 174.08S102.4 854.016 102.4 757.76s77.824-174.08 174.08-174.08c20.48 0 38.912 4.096 57.344 10.24l120.832-137.216L223.232 143.36V81.92l280.576 319.488L784.384 81.92v61.44L552.96 456.704 673.792 593.92c45.056-16.384 96.256-12.288 143.36 12.288 77.824 43.008 110.592 139.264 75.776 221.184-4.096 10.24-16.384 14.336-26.624 10.24-10.24-4.096-14.336-16.384-10.24-26.624 26.624-61.44 2.048-135.168-57.344-167.936-63.488-34.816-145.408-12.288-182.272 51.2S604.16 839.68 669.696 874.496c36.864 20.48 79.872 22.528 116.736 6.144 10.24-4.096 22.528 0 26.624 10.24s0 22.528-10.24 26.624c-49.152 20.48-104.448 18.432-151.552-8.192-83.968-47.104-114.688-153.6-67.584-237.568 6.144-10.24 12.288-18.432 18.432-26.624l-92.16-124.928L409.6 645.12zM276.48 890.88c73.728 0 133.12-59.392 133.12-133.12s-59.392-133.12-133.12-133.12-133.12 59.392-133.12 133.12 59.392 133.12 133.12 133.12m225.28-409.6c12.288 0 20.48-8.192 20.48-20.48s-8.192-20.48-20.48-20.48-20.48 8.192-20.48 20.48 8.192 20.48 20.48 20.48"/></svg>