<svg xmlns="http://www.w3.org/2000/svg" viewBox="0 0 1024 1024"><path fill="currentColor" d="M896 469.333h-42.667v-256a42.667 42.667 0 0 0-42.666-42.666h-128V128A42.667 42.667 0 0 0 640 85.333H384A42.667 42.667 0 0 0 341.333 128v42.667h-128a42.667 42.667 0 0 0-42.666 42.666v597.334a42.667 42.667 0 0 0 42.666 42.666h256V896A42.667 42.667 0 0 0 512 938.667h384A42.667 42.667 0 0 0 938.667 896V512A42.667 42.667 0 0 0 896 469.333zM426.667 170.667h170.666V256H426.667v-85.333zM469.333 512v256H256V256h85.333v42.667A42.667 42.667 0 0 0 384 341.333h256a42.667 42.667 0 0 0 42.667-42.666V256H768v213.333H512A42.667 42.667 0 0 0 469.333 512zm384 341.333H554.667V554.667h298.666v298.666"/></svg>