<svg xmlns="http://www.w3.org/2000/svg" viewBox="0 0 1024 1024"><path d="M853.547 255.787H810.88v85.333h42.667v341.333H810.88v85.334h42.667c47.061 0 85.333-38.272 85.333-85.334V341.12c0-47.019-38.315-85.333-85.333-85.333zM256.213 426.453H640V597.12H256.213z" fill="currentColor"/><path d="M725.547 767.787v-597.12h127.786V85.333H512v85.334h128.213v85.12H170.88c-47.061 0-85.333 38.272-85.333 85.333v341.333c0 47.062 38.272 85.334 85.333 85.334h469.333v85.546H512v85.334h341.333v-85.334H725.547v-85.546zM170.88 682.453V341.12h469.333v341.333H170.88z" fill="currentColor"/></svg>