<svg xmlns="http://www.w3.org/2000/svg" viewBox="0 0 1024 1024"><path fill="currentColor" d="M517.982 980.129H180.986c-66.845 0-121.161-54.73-121.161-122.085V178.918c0-67.354 54.316-122.085 121.161-122.085h673.993c66.844 0 121.161 54.731 121.161 122.085V518.48c0 22.451-17.986 40.574-40.268 40.574-22.281 0-40.267-18.123-40.267-40.574V178.918c0-22.542-18.255-40.936-40.626-40.936H180.986c-22.371 0-40.626 18.394-40.626 40.936v679.126c0 22.542 18.255 40.936 40.626 40.936h336.996c22.282 0 40.268 18.123 40.268 40.574 0 22.451-17.986 40.575-40.268 40.575z"/><path fill="currentColor" d="M517.982 779.961c-69.35 0-134.494-27.23-183.531-76.55-48.948-49.411-75.972-115.052-75.972-184.93s27.024-135.519 75.972-184.93c48.948-49.41 114.181-76.55 183.531-76.55 69.35 0 134.495 27.23 183.532 76.55 48.948 49.411 75.972 115.052 75.972 184.93S750.462 654 701.514 703.411c-49.037 49.32-114.181 76.55-183.532 76.55zm0-441.811c-98.7 0-178.967 80.878-178.967 180.331 0 99.453 80.267 180.331 178.967 180.331 98.701 0 178.968-80.878 178.968-180.331 0-99.453-80.267-180.331-178.968-180.331z"/><path fill="currentColor" d="M935.425 979.678c-10.29 0-20.581-3.968-28.456-11.902L644.334 703.14c-15.75-15.87-15.75-41.566 0-57.345 15.749-15.87 41.252-15.87 56.912 0L963.88 910.43c15.75 15.869 15.75 41.566 0 57.345-7.875 7.934-18.165 11.902-28.456 11.902z"/></svg>